<svg width="35" height="36" viewBox="0 0 35 36" fill="none" xmlns="http://www.w3.org/2000/svg">
<path d="M5.83341 31.125H29.0107C30.6192 31.125 31.9274 29.8169 31.9274 28.2083V7.79167C31.9274 6.18313 30.6192 4.875 29.0107 4.875H5.83341C4.22487 4.875 2.91675 6.18313 2.91675 7.79167V28.2083C2.91675 29.8169 4.22487 31.125 5.83341 31.125ZM5.83341 28.2083V20.9167H11.6667V28.2083H5.83341ZM20.4167 10.7083V18H14.5834V10.7083H20.4167ZM11.6667 10.7083V18H5.83341V10.7083H11.6667ZM14.5834 28.2083V20.9167H20.4167V28.2083H14.5834ZM23.3334 28.2083V20.9167H29.0122V28.2083H23.3334ZM29.0107 18H23.3334V10.7083H29.0107V18Z" fill="#155FEE"/>
</svg>
