<svg width="20" height="20" viewBox="0 0 20 20" fill="none" xmlns="http://www.w3.org/2000/svg">
<path d="M0.164586 14.7827L0.0996446 18.8467C0.0962266 19.1509 0.34232 19.4004 0.64652 19.4004H0.660191L4.69339 19.3013C4.76175 19.2979 4.83011 19.2705 4.87796 19.2227L19.0933 5.03809C19.1993 4.93213 19.1993 4.75781 19.0933 4.65186L14.8448 0.406738C14.7901 0.352051 14.7217 0.328125 14.6499 0.328125C14.5782 0.328125 14.5098 0.355469 14.4551 0.406738L0.2432 14.5913C0.193832 14.6429 0.165758 14.7113 0.164586 14.7827ZM2.335 15.5894L14.6499 3.30176L16.1949 4.84326L3.87308 17.1377L2.31107 17.1753L2.335 15.5894Z" fill="#155FEE"/>
</svg>
